<svg width="306" height="97" viewBox="0 0 306 97" fill="none" xmlns="http://www.w3.org/2000/svg">
<path d="M0.548569 48.3265C7.8054 32.5757 45.7906 42.3251 48.1716 22.8195C50.7969 1.31407 146.751 22.8195 160.086 16.3177C173.42 9.81596 216.757 15.3177 240.093 25.3204C260.891 34.2354 302.955 32.8222 305.812 43.8253C308.67 54.8283 278.191 54.3282 260.571 71.3328C240.351 90.8459 206.28 63.3307 175.325 85.8368C140.561 111.113 86.449 87.8375 70.0784 71.3328C58.1726 59.3295 -6.5948 63.831 0.548569 48.3265Z" fill="#F6F6F6"/>
<path d="M231 40.8098C231 56.3562 172.321 60.8807 148 61.8791C123.679 62.8774 65 57.8537 65 40.8098C65 18.2712 102.16 0 148 0C193.84 0 231 18.2712 231 40.8098Z" fill="#FFDB65"/>
<ellipse cx="200.805" cy="17.2726" rx="3.5" ry="13.8144" transform="rotate(-62.5461 200.805 17.2726)" fill="#F6F6F6"/>
</svg>
